<?xml version="1.0" encoding="UTF-8"?>
<svg width="37px" height="26px" viewBox="0 0 37 26" version="1.1" xmlns="http://www.w3.org/2000/svg" xmlns:xlink="http://www.w3.org/1999/xlink">
    <!-- Generator: Sketch 43.1 (39012) - http://www.bohemiancoding.com/sketch -->
    <title>elearning</title>
    <desc>Created with Sketch.</desc>
    <defs></defs>
    <g id="Welcome" stroke="none" stroke-width="1" fill="none" fill-rule="evenodd">
        <g id="Home-CareerDiksuchi" transform="translate(-34.000000, -469.000000)" fill-rule="nonzero">
            <g id="elearning" transform="translate(34.000000, 469.000000)">
                <rect id="Rectangle-path" fill="#FFFFFF" x="3.46875" y="2.36901657" width="30.0625" height="18.3867403"></rect>
                <rect id="Rectangle-path" fill="#FF4F19" x="3.46875" y="2.36901657" width="30.0625" height="4.59668508"></rect>
                <path d="M33.1795332,0.0706740331 L3.81938281,0.0706740331 C2.35087305,0.0706740331 1.15625,1.25525414 1.15625,2.71132597 L1.15625,23.6286851 C1.15625,23.9462873 1.41481641,24.2032707 1.734375,24.2032707 L35.265625,24.2032707 C35.5851836,24.2032707 35.84375,23.9462873 35.84375,23.6286851 L35.84375,2.71132597 C35.84375,1.25525414 34.6485488,0.0706740331 33.1795332,0.0706740331 Z M3.46875,20.1811713 L3.46875,2.94360221 C3.46875,2.62628729 3.72760547,2.36901657 4.046875,2.36901657 L32.953125,2.36901657 C33.2723945,2.36901657 33.53125,2.62628729 33.53125,2.94360221 L33.53125,20.1811713 C33.53125,20.4984862 33.2723945,20.7557569 32.953125,20.7557569 L4.046875,20.7557569 C3.72760547,20.7557569 3.46875,20.4984862 3.46875,20.1811713 Z" id="Shape" fill="#5C546A"></path>
                <path d="M36.421875,23.0540994 L0.578125,23.0540994 C0.258566406,23.0540994 0,23.3110829 0,23.6286851 L0,23.6286851 C0,24.8973702 1.03824023,25.9292541 2.31474023,25.9292541 L34.6851875,25.9292541 C35.9616875,25.9292541 36.9999277,24.8973702 36.9999277,23.6286851 L36.9999277,23.6286851 C37,23.3110829 36.7414336,23.0540994 36.421875,23.0540994 Z" id="Shape" fill="#B9BBC1"></path>
                <path d="M10.40625,5.24194475 L6.359375,5.24194475 C6.03981641,5.24194475 5.78125,4.98496133 5.78125,4.66735912 C5.78125,4.34975691 6.03981641,4.09277348 6.359375,4.09277348 L10.40625,4.09277348 C10.7258086,4.09277348 10.984375,4.34975691 10.984375,4.66735912 C10.984375,4.98496133 10.7258086,5.24194475 10.40625,5.24194475 Z" id="Shape" fill="#FFD200"></path>
                <path d="M20.8125,5.24194475 L20.234375,5.24194475 C19.9148164,5.24194475 19.65625,4.98496133 19.65625,4.66735912 C19.65625,4.34975691 19.9148164,4.09277348 20.234375,4.09277348 L20.8125,4.09277348 C21.1320586,4.09277348 21.390625,4.34975691 21.390625,4.66735912 C21.390625,4.98496133 21.1320586,5.24194475 20.8125,5.24194475 Z" id="Shape" fill="#FFFFFF"></path>
                <path d="M23.703125,5.24194475 L23.125,5.24194475 C22.8054414,5.24194475 22.546875,4.98496133 22.546875,4.66735912 C22.546875,4.34975691 22.8054414,4.09277348 23.125,4.09277348 L23.703125,4.09277348 C24.0226836,4.09277348 24.28125,4.34975691 24.28125,4.66735912 C24.28125,4.98496133 24.0226836,5.24194475 23.703125,5.24194475 Z" id="Shape" fill="#FFFFFF"></path>
                <path d="M26.59375,5.24194475 L26.015625,5.24194475 C25.6960664,5.24194475 25.4375,4.98496133 25.4375,4.66735912 C25.4375,4.34975691 25.6960664,4.09277348 26.015625,4.09277348 L26.59375,4.09277348 C26.9133086,4.09277348 27.171875,4.34975691 27.171875,4.66735912 C27.171875,4.98496133 26.9133086,5.24194475 26.59375,5.24194475 Z" id="Shape" fill="#FFFFFF"></path>
                <path d="M29.484375,5.24194475 L28.90625,5.24194475 C28.5866914,5.24194475 28.328125,4.98496133 28.328125,4.66735912 C28.328125,4.34975691 28.5866914,4.09277348 28.90625,4.09277348 L29.484375,4.09277348 C29.8039336,4.09277348 30.0625,4.34975691 30.0625,4.66735912 C30.0625,4.98496133 29.8039336,5.24194475 29.484375,5.24194475 Z" id="Shape" fill="#FFFFFF"></path>
                <path d="M16.1875,19.032 L6.359375,19.032 C6.04010547,19.032 5.78125,18.7747293 5.78125,18.4574144 L5.78125,9.2640442 C5.78125,8.94672928 6.04010547,8.68945856 6.359375,8.68945856 L16.1875,8.68945856 C16.5067695,8.68945856 16.765625,8.94672928 16.765625,9.2640442 L16.765625,18.4574144 C16.765625,18.7747293 16.5067695,19.032 16.1875,19.032 Z" id="Shape" fill="#53DCFF"></path>
                <path d="M30.0625,9.83862983 L19.078125,9.83862983 C18.7585664,9.83862983 18.5,9.58164641 18.5,9.2640442 C18.5,8.94644199 18.7585664,8.68945856 19.078125,8.68945856 L30.0625,8.68945856 C30.3820586,8.68945856 30.640625,8.94644199 30.640625,9.2640442 C30.640625,9.58164641 30.3820586,9.83862983 30.0625,9.83862983 Z" id="Shape" fill="#FF4F19"></path>
                <path d="M23.703125,14.4353149 L19.078125,14.4353149 C18.7585664,14.4353149 18.5,14.1783315 18.5,13.8607293 C18.5,13.5431271 18.7585664,13.2861436 19.078125,13.2861436 L23.703125,13.2861436 C24.0226836,13.2861436 24.28125,13.5431271 24.28125,13.8607293 C24.28125,14.1783315 24.0226836,14.4353149 23.703125,14.4353149 Z" id="Shape" fill="#B9BBC1"></path>
                <path d="M23.703125,16.7336575 L19.078125,16.7336575 C18.7585664,16.7336575 18.5,16.476674 18.5,16.1590718 C18.5,15.8414696 18.7585664,15.5844862 19.078125,15.5844862 L23.703125,15.5844862 C24.0226836,15.5844862 24.28125,15.8414696 24.28125,16.1590718 C24.28125,16.476674 24.0226836,16.7336575 23.703125,16.7336575 Z" id="Shape" fill="#B9BBC1"></path>
                <path d="M23.703125,19.032 L19.078125,19.032 C18.7585664,19.032 18.5,18.7750166 18.5,18.4574144 C18.5,18.1398122 18.7585664,17.8828287 19.078125,17.8828287 L23.703125,17.8828287 C24.0226836,17.8828287 24.28125,18.1398122 24.28125,18.4574144 C24.28125,18.7750166 24.0226836,19.032 23.703125,19.032 Z" id="Shape" fill="#B9BBC1"></path>
                <path d="M30.640625,14.4353149 L26.015625,14.4353149 C25.6960664,14.4353149 25.4375,14.1783315 25.4375,13.8607293 C25.4375,13.5431271 25.6960664,13.2861436 26.015625,13.2861436 L30.640625,13.2861436 C30.9601836,13.2861436 31.21875,13.5431271 31.21875,13.8607293 C31.21875,14.1783315 30.9601836,14.4353149 30.640625,14.4353149 Z" id="Shape" fill="#B9BBC1"></path>
                <path d="M30.640625,16.7336575 L26.015625,16.7336575 C25.6960664,16.7336575 25.4375,16.476674 25.4375,16.1590718 C25.4375,15.8414696 25.6960664,15.5844862 26.015625,15.5844862 L30.640625,15.5844862 C30.9601836,15.5844862 31.21875,15.8414696 31.21875,16.1590718 C31.21875,16.476674 30.9601836,16.7336575 30.640625,16.7336575 Z" id="Shape" fill="#B9BBC1"></path>
                <path d="M30.640625,19.032 L26.015625,19.032 C25.6960664,19.032 25.4375,18.7750166 25.4375,18.4574144 C25.4375,18.1398122 25.6960664,17.8828287 26.015625,17.8828287 L30.640625,17.8828287 C30.9601836,17.8828287 31.21875,18.1398122 31.21875,18.4574144 C31.21875,18.7750166 30.9601836,19.032 30.640625,19.032 Z" id="Shape" fill="#B9BBC1"></path>
                <path d="M26.59375,12.1369724 L19.078125,12.1369724 C18.7585664,12.1369724 18.5,11.879989 18.5,11.5623867 C18.5,11.2447845 18.7585664,10.9878011 19.078125,10.9878011 L26.59375,10.9878011 C26.9133086,10.9878011 27.171875,11.2447845 27.171875,11.5623867 C27.171875,11.879989 26.9133086,12.1369724 26.59375,12.1369724 Z" id="Shape" fill="#E9001E"></path>
                <path d="M16.1875,24.2032707 L20.8125,24.2032707 C21.4510391,24.2032707 21.96875,23.6887293 21.96875,23.0540994 L15.03125,23.0540994 C15.03125,23.6888011 15.5488887,24.2032707 16.1875,24.2032707 Z" id="Shape" fill="#8B8996"></path>
            </g>
        </g>
    </g>
</svg>