<?xml version="1.0" encoding="UTF-8"?>
<svg width="26px" height="32px" viewBox="0 0 26 32" version="1.1" xmlns="http://www.w3.org/2000/svg" xmlns:xlink="http://www.w3.org/1999/xlink">
    <!-- Generator: Sketch 43.1 (39012) - http://www.bohemiancoding.com/sketch -->
    <title>resume</title>
    <desc>Created with Sketch.</desc>
    <defs></defs>
    <g id="Welcome" stroke="none" stroke-width="1" fill="none" fill-rule="evenodd">
        <g id="Home-CareerDiksuchi" transform="translate(-40.000000, -524.000000)" fill-rule="nonzero">
            <g id="resume" transform="translate(40.000000, 524.000000)">
                <path d="M14.9993333,4 C14.86,4 14.72,3.956 14.6,3.86666667 C14.3053333,3.646 14.2453333,3.228 14.4666667,2.934 L16.4666667,0.267333333 C16.6873333,-0.0273333333 17.1053333,-0.0866666667 17.3993333,0.134 C17.694,0.354666667 17.754,0.772666667 17.5326667,1.06666667 L15.5326667,3.73333333 C15.402,3.908 15.2026667,4 14.9993333,4 Z" id="Shape" fill="#FFFFFF"></path>
                <path d="M24.3333333,3.33333333 L1.66666667,3.33333333 C0.933333333,3.33333333 0.333333333,3.81034403 0.333333333,4.3933571 L0.333333333,30.8939512 C0.333333333,31.4769643 0.933333333,31.953975 1.66666667,31.953975 L24.3333333,31.953975 C25.0666667,31.953975 25.6666667,31.4769643 25.6666667,30.8939512 L25.6666667,4.3933571 C25.6666667,3.81034403 25.0666667,3.33333333 24.3333333,3.33333333 Z M13,8.10344027 C11.8953333,8.10344027 11,7.39163431 11,6.51340463 C11,5.63517494 11.8953333,4.92336898 13,4.92336898 C14.1046667,4.92336898 15,5.63517494 15,6.51340463 C15,7.39163431 14.1046667,8.10344027 13,8.10344027 Z" id="Shape" fill="#E7ECED"></path>
                <path d="M0.333333333,23 L0.333333333,30.9590889 C0.333333333,31.5062762 0.933333333,31.953975 1.66666667,31.953975 L24.3333333,31.953975 C25.0666667,31.953975 25.6666667,31.5062762 25.6666667,30.9590889 L25.6666667,23 L0.333333333,23 Z" id="Shape" fill="#556080"></path>
                <g id="Group" transform="translate(6.000000, 24.000000)" fill="#FFFFFF">
                    <path d="M1,4 L13,4 C13.3686667,4 13.6666667,3.702 13.6666667,3.33333333 C13.6666667,2.96466667 13.3686667,2.66666667 13,2.66666667 L1,2.66666667 C0.631333333,2.66666667 0.333333333,2.96466667 0.333333333,3.33333333 C0.333333333,3.702 0.631333333,4 1,4 Z" id="Shape"></path>
                    <path d="M3.66666667,1.33333333 L10.3333333,1.33333333 C10.702,1.33333333 11,1.03533333 11,0.666666667 C11,0.298 10.702,0 10.3333333,0 L3.66666667,0 C3.298,0 3,0.298 3,0.666666667 C3,1.03533333 3.298,1.33333333 3.66666667,1.33333333 Z" id="Shape"></path>
                    <path d="M1.66666667,5.33333333 L1,5.33333333 C0.631333333,5.33333333 0.333333333,5.63133333 0.333333333,6 C0.333333333,6.36866667 0.631333333,6.66666667 1,6.66666667 L1.66666667,6.66666667 C2.03533333,6.66666667 2.33333333,6.36866667 2.33333333,6 C2.33333333,5.63133333 2.03533333,5.33333333 1.66666667,5.33333333 Z" id="Shape"></path>
                    <path d="M5.66666667,5.33333333 L4.33333333,5.33333333 C3.96466667,5.33333333 3.66666667,5.63133333 3.66666667,6 C3.66666667,6.36866667 3.96466667,6.66666667 4.33333333,6.66666667 L5.66666667,6.66666667 C6.03533333,6.66666667 6.33333333,6.36866667 6.33333333,6 C6.33333333,5.63133333 6.03533333,5.33333333 5.66666667,5.33333333 Z" id="Shape"></path>
                    <path d="M9,5.33333333 L8.33333333,5.33333333 C7.96466667,5.33333333 7.66666667,5.63133333 7.66666667,6 C7.66666667,6.36866667 7.96466667,6.66666667 8.33333333,6.66666667 L9,6.66666667 C9.36866667,6.66666667 9.66666667,6.36866667 9.66666667,6 C9.66666667,5.63133333 9.36866667,5.33333333 9,5.33333333 Z" id="Shape"></path>
                    <path d="M13,5.33333333 L11.6666667,5.33333333 C11.298,5.33333333 11,5.63133333 11,6 C11,6.36866667 11.298,6.66666667 11.6666667,6.66666667 L13,6.66666667 C13.3686667,6.66666667 13.6666667,6.36866667 13.6666667,6 C13.6666667,5.63133333 13.3686667,5.33333333 13,5.33333333 Z" id="Shape"></path>
                </g>
                <path d="M18,23 C17.9862031,22.3385676 17.6325938,21.7376122 17.0756082,21.4406759 L15.150686,20.3924091 C15.0193601,20.3210354 14.9365787,20.1766535 14.9365787,20.0191956 L14.9365787,19.3909982 C15.9243341,18.9371488 16.4920507,18.0556022 16.7684995,16.9528517 C17.1849613,16.8155527 17.4915589,16.4047454 17.4915589,15.9171161 L17.4915589,15.3722789 C17.4915589,14.9549336 17.2662097,14.5947962 16.9407052,14.4117309 C16.7153559,12.3625981 15.4450198,11.5333558 13.4035906,11.5333558 C13.3070123,11.5333558 13.2119671,11.5371697 13.1189658,11.5453422 C12.4250331,11.6041846 11.7229246,11.4652512 11.145499,11.0500852 C10.9053309,10.8779166 10.7034875,10.6943065 10.5614306,10.5019789 C10.4965341,10.4142601 10.3672521,10.4703784 10.379005,10.5809803 C10.3994448,10.7716734 10.4301046,10.993967 10.4750722,11.2369644 C10.6437009,12.1413941 10.5430347,12.0095435 10.2149752,12.8627586 C10.0335716,13.3345877 9.91655355,13.8581762 9.86238797,14.4128205 C9.53943847,14.5975203 9.3156222,14.9565681 9.3156222,15.3722789 L9.3156222,15.9171161 C9.3156222,16.4047454 9.62221983,16.8155527 10.0386816,16.9533965 C10.3151305,18.0556022 10.8823361,18.9376937 11.8706024,19.3915431 L11.8706024,20.0153817 C11.8706024,20.175019 11.7857771,20.3204905 11.6513851,20.3913194 L9.6784294,21.4270549 C9.13983956,21.7403363 8.80462616,22.3423815 8.80462616,22.9961861 L18,23 Z" id="Shape" fill="#3083C9"></path>
                <path d="M13.0006667,8 C12.756,8 12.5206667,7.86533333 12.4033333,7.63133333 L9.07,0.964666667 C8.90533333,0.635333333 9.03866667,0.234666667 9.368,0.07 C9.69733333,-0.0933333333 10.098,0.0386666667 10.2626667,0.368 L13.596,7.03466667 C13.7606667,7.364 13.6273333,7.76466667 13.298,7.92933333 C13.2026667,7.97733333 13.1006667,8 13.0006667,8 Z" id="Shape" fill="#FFFFFF"></path>
            </g>
        </g>
    </g>
</svg>